<?xml version="1.0" standalone="no"?>
<!DOCTYPE svg PUBLIC "-//W3C//DTD SVG 20010904//EN"
 "http://www.w3.org/TR/2001/REC-SVG-20010904/DTD/svg10.dtd">
<svg version="1.0" xmlns="http://www.w3.org/2000/svg"
 width="1280.000000pt" height="640.000000pt" viewBox="0 0 1280.000000 640.000000"
 preserveAspectRatio="xMidYMid meet">
<metadata>
Created by potrace 1.15, written by Peter Selinger 2001-2017
</metadata>
<g transform="translate(0.000000,640.000000) scale(0.100000,-0.100000)"
fill="#000000" stroke="none">
<path d="M5819 4511 c-182 -58 -265 -207 -284 -511 -12 -177 19 -312 110 -488
99 -192 208 -336 414 -544 80 -82 141 -148 137 -148 -5 0 4 -10 20 -22 16 -12
49 -40 74 -62 47 -43 32 -21 -36 54 -262 286 -369 430 -472 636 -80 160 -95
214 -100 369 -7 237 34 395 125 474 51 46 114 66 205 65 56 0 78 -6 140 -36
40 -20 102 -60 137 -88 83 -68 111 -70 177 -12 67 60 149 107 218 127 51 15
70 16 128 6 123 -20 193 -69 243 -168 56 -114 73 -349 35 -499 -54 -212 -279
-563 -548 -856 -126 -137 -95 -113 74 57 200 201 307 327 417 490 182 272 244
476 218 720 -25 237 -124 381 -300 436 -76 23 -205 25 -274 4 -82 -25 -181
-83 -237 -140 l-54 -54 -55 52 c-67 64 -128 101 -219 133 -84 30 -209 32 -293
5z m224 -56 c58 -15 156 -60 192 -89 11 -9 -11 -1 -50 16 -65 31 -78 33 -175
33 -99 0 -110 -2 -172 -33 -78 -38 -121 -84 -158 -167 -47 -104 -55 -156 -55
-350 0 -169 2 -184 26 -250 41 -108 42 -113 15 -63 -14 26 -38 82 -53 125 -25
73 -27 89 -26 238 1 233 34 361 117 453 77 85 213 120 339 87z m904 -10 c144
-43 227 -170 254 -387 20 -160 -3 -318 -66 -450 -14 -29 -22 -44 -19 -33 40
123 54 204 54 314 -1 261 -76 417 -238 494 -117 55 -271 47 -392 -20 -35 -19
-39 -20 -20 -4 39 32 145 82 202 97 60 15 151 11 225 -11z m-522 -160 c-16
-14 -30 -32 -30 -42 0 -9 -6 -18 -14 -21 -10 -3 -12 0 -8 12 5 11 -2 25 -21
42 l-27 24 31 -17 c30 -16 32 -16 60 5 40 29 46 27 9 -3z"/>
<path d="M675 3850 c-184 -22 -321 -85 -436 -199 -160 -160 -228 -357 -234
-681 l-3 -165 8 160 c4 88 16 198 25 244 52 264 177 447 368 541 113 55 181
71 330 77 192 8 362 -19 597 -95 l115 -37 -145 -7 c-138 -6 -217 -20 -294 -52
-27 -11 -65 -13 -168 -9 -230 10 -372 -39 -503 -171 -82 -83 -118 -145 -145
-252 -25 -97 -27 -288 -5 -383 49 -208 200 -355 420 -409 114 -28 159 -33 308
-34 104 0 149 -4 212 -21 71 -20 105 -22 305 -22 168 0 254 5 340 18 107 17
345 62 380 73 13 3 21 -17 39 -96 46 -204 150 -358 288 -423 73 -34 70 -34
383 -30 41 0 134 0 205 0 244 0 391 61 451 188 64 136 -14 347 -215 579 -23
26 -41 51 -41 55 0 4 21 13 48 19 26 6 150 36 276 66 1225 296 1981 299 2553
11 71 -36 117 -56 103 -44 -45 36 -262 137 -383 178 -251 86 -502 121 -862
121 -236 0 -450 -14 -676 -45 -269 -37 -742 -127 -1050 -199 l-96 -23 -27 24
c-31 26 -35 24 79 52 570 142 1081 226 1520 252 459 26 945 -43 1173 -167 35
-19 61 -30 57 -24 -12 19 10 10 90 -36 119 -68 118 -67 111 -55 -4 6 -37 27
-74 47 -37 20 -89 51 -117 67 -27 17 -59 31 -71 33 -11 1 -49 16 -83 33 -35
17 -66 29 -70 26 -4 -2 -41 7 -82 19 -94 30 -239 60 -399 83 -174 25 -714 24
-945 0 -325 -35 -726 -103 -1113 -188 -100 -22 -188 -37 -195 -33 -6 5 -46 35
-87 69 -135 110 -146 117 -159 101 -10 -12 7 -29 93 -98 58 -45 106 -85 106
-88 0 -3 -36 -13 -81 -23 l-80 -18 -49 43 c-26 24 -48 49 -49 56 -1 7 10 34
23 61 19 36 22 51 13 60 -18 18 -26 13 -52 -40 l-26 -50 -37 31 c-20 16 -83
65 -139 108 -56 42 -102 82 -102 88 -1 14 37 64 48 64 5 0 70 -41 146 -91 92
-61 140 -88 147 -81 6 6 7 15 4 20 -3 6 -67 50 -141 98 -74 48 -135 91 -135
95 0 5 39 49 87 97 404 407 1060 488 1898 235 392 -118 913 -356 1383 -630 23
-14 42 -23 42 -20 0 3 -57 38 -127 79 -623 365 -1190 598 -1703 702 -212 43
-547 59 -727 36 -341 -45 -604 -170 -811 -384 l-93 -96 -102 55 c-189 101
-440 199 -622 245 -49 12 -140 42 -202 66 -285 112 -610 169 -818 144z m816
-194 c134 -22 399 -156 697 -353 134 -88 162 -100 162 -69 0 22 -302 212 -482
302 -50 25 -88 47 -85 50 15 15 464 -181 585 -256 l33 -20 -20 -29 c-25 -35
-26 -47 -6 -55 17 -6 19 -15 5 -36 -7 -12 -12 -12 -22 -2 -6 6 -16 12 -20 12
-14 0 -85 -154 -116 -252 -17 -53 -36 -130 -42 -171 l-12 -74 -162 -36 c-340
-78 -608 -127 -816 -151 -120 -14 -127 -14 -167 5 -41 20 -120 96 -141 136
-11 20 -8 21 46 28 31 3 83 13 115 21 l58 15 41 -35 c147 -127 451 -85 612 83
34 36 70 88 89 128 28 60 32 78 32 153 0 76 -3 92 -33 152 -76 155 -276 267
-512 285 -73 5 -95 12 -158 46 -41 22 -99 48 -130 58 l-57 17 35 15 c105 45
310 59 471 33z m-651 -113 c0 -3 -22 -29 -48 -57 -27 -28 -59 -69 -72 -91 -12
-22 -40 -52 -62 -68 -88 -62 -132 -177 -126 -326 3 -83 8 -104 34 -156 17 -33
29 -67 27 -75 -4 -13 -3 -13 5 -1 8 12 16 9 44 -14 18 -15 47 -34 65 -41 23
-10 38 -28 58 -71 14 -31 36 -71 49 -88 45 -60 47 -59 -44 -51 -318 28 -475
179 -497 476 -20 290 138 506 408 555 81 14 159 19 159 8z m136 -18 c80 -19
147 -46 137 -55 -4 -4 -31 -15 -60 -24 -28 -9 -76 -35 -108 -57 -55 -38 -57
-39 -101 -28 -24 6 -63 9 -84 6 -22 -3 -40 -3 -40 0 0 12 47 72 94 121 56 58
65 60 162 37z m308 -168 c20 -24 42 -60 50 -79 l15 -36 -69 -4 c-94 -5 -142
-38 -189 -131 -30 -59 -35 -80 -39 -157 -3 -63 0 -102 11 -133 15 -44 15 -45
-8 -55 -36 -17 -137 -34 -175 -30 -34 3 -35 5 -47 58 -30 144 -7 310 56 407
69 106 95 115 112 36 8 -38 8 -38 5 -3 -2 19 -7 45 -11 57 -6 18 1 26 42 49
44 26 154 62 195 63 9 1 33 -18 52 -42z m239 7 c129 -43 220 -113 263 -203 10
-20 20 -67 22 -106 5 -98 -22 -167 -99 -249 -99 -106 -219 -152 -379 -144 -71
3 -94 9 -133 31 -25 15 -48 31 -52 36 -3 5 18 24 47 41 124 77 210 204 231
344 11 70 14 76 29 64 10 -7 22 -24 27 -38 9 -24 10 -24 10 -3 1 14 -12 33
-34 50 -19 15 -35 37 -35 48 0 11 -14 49 -32 85 -18 36 -34 69 -36 74 -7 13
97 -4 171 -30z m-666 -22 c9 -5 2 -21 -24 -52 -90 -112 -134 -281 -116 -445 5
-49 8 -91 7 -93 -5 -8 -51 22 -86 56 -34 32 -38 42 -39 87 -2 46 -2 47 -8 15
l-6 -35 -14 47 c-9 31 -12 80 -9 141 4 102 33 180 83 227 30 28 31 21 6 -46
-23 -59 -51 -202 -50 -248 1 -17 7 7 14 54 18 115 61 247 90 276 20 20 34 24
82 24 32 0 63 -4 70 -8z m473 -119 l33 -6 -5 -81 c-6 -86 -31 -152 -87 -225
-29 -38 -136 -121 -156 -121 -21 0 -38 94 -33 180 10 172 116 280 248 253z
m1154 -133 c55 -44 117 -95 137 -113 l37 -32 -21 -67 -21 -67 -191 -46 c-104
-25 -193 -45 -196 -45 -11 0 21 151 51 242 29 88 85 208 96 208 4 0 52 -36
108 -80z m249 -218 l27 -29 -45 -10 c-25 -6 -45 -7 -45 -3 0 16 22 70 29 70 4
0 19 -13 34 -28z m366 -76 l22 -23 -92 -23 -92 -23 -18 24 c-20 27 -24 24 71
50 85 23 83 23 109 -5z m-234 -56 c10 -11 16 -22 14 -24 -5 -4 -222 -56 -236
-56 -6 0 -8 11 -5 25 4 26 6 27 142 64 53 14 65 13 85 -9z m-282 -91 c-10 -10
-355 -88 -366 -82 -4 2 -3 12 2 21 6 10 70 32 187 62 170 44 179 46 182 27 2
-11 0 -23 -5 -28z m667 -16 c143 -156 240 -341 240 -455 0 -155 -126 -238
-385 -253 l-100 -6 43 24 c65 35 129 102 146 155 42 122 6 263 -111 440 -32
48 -58 91 -58 96 0 8 132 51 166 55 4 1 31 -25 59 -56z m-231 -87 c139 -202
175 -372 101 -475 -35 -48 -115 -96 -186 -112 -51 -11 -53 -11 -97 21 -124 88
-215 311 -205 499 l3 64 160 42 c88 23 163 40 166 39 3 -2 29 -37 58 -78z
m-863 7 c-12 -12 -437 -88 -457 -81 -7 2 35 14 92 26 57 13 163 37 234 55 103
26 131 30 133 19 2 -7 1 -16 -2 -19z m427 -130 c10 -174 74 -338 169 -437 27
-28 48 -51 48 -53 0 -2 -52 -3 -115 -3 -145 0 -203 19 -279 93 -85 83 -142
201 -171 350 l-13 67 27 7 c175 44 290 71 307 72 20 1 21 -5 27 -96z"/>
<path d="M986 3173 c-6 -14 -5 -15 5 -6 7 7 10 15 7 18 -3 3 -9 -2 -12 -12z"/>
<path d="M11835 3843 c-146 -18 -397 -86 -553 -149 -48 -19 -116 -41 -152 -50
-170 -39 -362 -112 -581 -220 l-168 -84 -98 99 c-498 500 -1312 522 -2403 66
-237 -100 -934 -465 -985 -517 -13 -14 1 -6 190 102 198 113 614 319 795 393
466 191 830 284 1199 306 457 28 824 -76 1101 -313 54 -46 150 -151 150 -164
0 -4 -19 -18 -43 -31 -23 -13 -87 -53 -141 -89 l-100 -65 -15 24 c-46 70 -138
172 -203 226 -369 305 -881 371 -1543 198 -334 -87 -750 -259 -1125 -465 -175
-97 -262 -140 -271 -135 -10 7 -299 -159 -299 -172 0 -3 10 1 23 9 71 46 198
108 208 102 8 -5 9 -3 4 6 -5 8 -3 11 6 8 8 -3 32 5 54 18 97 56 356 120 601
149 150 17 527 20 709 5 368 -31 793 -104 1285 -221 205 -49 203 -48 189 -65
-30 -37 -44 -36 -272 15 -526 117 -924 183 -1282 212 -200 15 -653 7 -795 -15
-142 -23 -327 -68 -429 -105 -46 -17 -88 -28 -92 -25 -5 3 -9 0 -9 -5 0 -6 -3
-10 -7 -9 -13 4 -230 -118 -273 -154 l-25 -20 35 20 c19 10 62 35 96 55 146
87 410 169 659 203 176 25 594 25 815 1 273 -31 539 -76 865 -148 191 -43 577
-137 583 -144 2 -2 -21 -32 -51 -68 -233 -274 -289 -510 -152 -636 93 -85 201
-116 400 -115 77 1 165 1 195 1 319 -4 332 -3 390 24 143 68 251 229 296 442
8 39 16 73 18 75 3 2 52 -6 111 -18 240 -49 349 -62 555 -67 187 -4 214 -3
305 18 77 17 125 22 210 20 208 -5 421 33 540 97 65 35 173 143 208 209 64
120 88 358 52 510 -67 285 -328 461 -650 439 -55 -4 -107 -8 -115 -8 -8 0 -47
11 -86 25 -95 34 -214 50 -325 45 -49 -2 -83 -1 -76 4 37 20 244 81 352 104
292 60 546 36 723 -68 86 -51 182 -152 229 -244 80 -153 112 -288 122 -514 8
-154 8 -154 9 -45 8 500 -202 828 -580 905 -87 19 -287 25 -383 13z m-191
-188 c47 -8 104 -23 127 -32 l42 -16 -74 -26 c-41 -15 -99 -41 -130 -59 -46
-26 -67 -32 -115 -32 -182 0 -374 -72 -485 -181 -235 -230 -79 -609 281 -685
142 -30 274 -3 350 71 l35 34 60 -18 c33 -10 84 -22 113 -26 28 -4 52 -9 52
-12 0 -14 -63 -93 -92 -115 -76 -58 -84 -59 -220 -43 -206 26 -553 91 -869
166 l-87 20 -16 92 c-21 113 -64 243 -111 337 -34 68 -47 81 -60 60 -9 -15
-25 -12 -32 5 -3 9 2 22 12 29 18 13 17 15 -4 49 l-22 36 63 35 c154 86 439
211 548 241 14 3 -22 -19 -80 -50 -202 -110 -459 -269 -475 -295 -4 -6 -3 -16
3 -22 7 -7 50 16 139 74 204 136 493 294 623 342 96 35 289 45 424 21z m-2446
-40 c116 -19 248 -58 340 -100 166 -77 334 -215 429 -352 l42 -60 -122 -98
-122 -98 -80 17 c-585 125 -903 178 -1300 217 -198 20 -688 17 -850 -5 -146
-20 -328 -56 -425 -86 -96 -28 -60 -6 195 120 763 378 1392 526 1893 445z
m2796 -136 c31 -33 63 -74 72 -91 l16 -30 -39 6 c-21 3 -63 0 -93 -7 l-55 -13
-55 38 c-30 21 -82 49 -114 62 l-59 24 39 17 c51 22 172 54 205 54 20 1 41
-14 83 -60z m160 46 c281 -73 419 -316 362 -636 -43 -240 -202 -363 -501 -387
-52 -4 -95 -7 -95 -6 0 1 20 32 45 68 25 37 48 79 51 92 5 19 22 32 62 50 31
14 71 36 88 49 l33 25 4 -23 c3 -18 5 -17 6 7 0 16 13 54 28 84 38 78 44 211
14 310 -22 74 -72 149 -115 171 -15 8 -40 37 -57 64 -16 27 -51 71 -76 98
l-46 49 70 0 c38 0 95 -7 127 -15z m-707 -143 c-20 -22 -67 -122 -67 -143 0
-8 -16 -23 -35 -32 -43 -21 -68 -57 -62 -94 4 -28 4 -28 6 4 1 22 10 39 32 57
41 35 49 33 49 -12 0 -137 95 -302 220 -382 50 -32 50 -33 33 -52 -38 -42 -94
-62 -189 -66 -244 -11 -452 146 -471 357 -15 163 116 302 339 361 40 10 93 19
117 19 41 1 43 0 28 -17z m261 -32 c89 -42 162 -114 203 -203 30 -65 33 -83
37 -185 3 -71 0 -136 -8 -174 l-13 -60 -61 5 c-81 7 -169 36 -162 54 19 49 27
144 16 204 -28 155 -97 234 -218 248 l-52 6 20 40 c11 22 36 57 55 77 34 34
37 35 78 26 23 -5 70 -22 105 -38z m393 -29 c23 -29 67 -171 84 -276 l15 -90
-6 72 c-5 73 -41 219 -63 261 -8 14 -8 22 -1 22 16 0 73 -85 92 -138 21 -57
24 -196 6 -256 l-13 -41 -6 35 c-6 32 -6 30 -8 -16 -1 -42 -6 -55 -33 -83 -30
-30 -96 -71 -116 -71 -5 0 -5 21 -1 48 12 75 10 201 -5 272 -19 86 -49 154
-97 218 -27 35 -36 54 -27 56 7 3 20 7 28 10 8 3 42 4 75 2 44 -3 64 -10 76
-25z m-1722 -70 c26 -36 26 -43 3 -58 -10 -6 -65 -48 -122 -94 -56 -46 -111
-90 -121 -97 -16 -12 -20 -9 -44 37 -23 47 -27 50 -47 40 -27 -14 -45 9 -23
30 11 12 17 12 29 1 14 -10 37 1 153 78 76 50 141 92 145 92 4 0 16 -13 27
-29z m1154 -32 c81 -22 140 -104 158 -222 11 -67 -1 -171 -20 -190 -26 -26
-157 101 -199 192 -25 55 -42 181 -29 215 7 19 37 20 90 5z m-1062 -135 c64
-138 121 -364 92 -364 -10 0 -329 75 -363 85 -9 3 -25 34 -37 69 l-21 64 37
35 c48 47 234 196 244 197 5 0 26 -39 48 -86z m-413 -69 c12 -25 22 -52 22
-59 0 -8 -23 -33 -51 -57 l-50 -42 -81 18 -81 19 39 34 c53 46 165 132 173
132 4 0 17 -20 29 -45z m60 -152 c6 -20 10 -38 9 -39 -2 -2 -22 2 -45 8 l-43
11 27 28 c15 16 31 29 34 29 4 0 12 -17 18 -37z m-219 -90 c3 -2 -6 -14 -20
-27 l-24 -24 -85 20 c-47 11 -87 22 -89 24 -2 1 9 14 25 27 l27 24 81 -20 c45
-11 83 -22 85 -24z m161 -39 c93 -26 98 -28 102 -56 4 -26 2 -29 -16 -24 -12
3 -64 15 -116 27 -52 12 -99 25 -104 30 -8 7 19 49 31 49 2 0 49 -12 103 -26z
m309 -80 c75 -19 153 -40 174 -45 27 -7 37 -15 37 -29 0 -11 -5 -20 -10 -20
-27 0 -337 73 -347 82 -16 13 -17 48 -2 48 6 0 73 -16 148 -36z m-675 4 c44
-12 82 -22 84 -24 2 -1 -17 -30 -42 -65 -24 -35 -60 -95 -79 -134 -116 -233
-83 -402 98 -496 l40 -21 -105 6 c-196 10 -327 69 -366 163 -41 98 8 259 129
423 61 83 138 170 149 170 6 0 47 -10 92 -22z m329 -85 l147 -38 0 -72 c0
-189 -85 -395 -200 -481 -39 -30 -49 -33 -87 -28 -54 7 -150 55 -185 93 -98
103 -73 261 79 491 47 70 59 83 77 78 11 -3 87 -23 169 -43z m816 -37 c271
-64 270 -64 241 -65 -14 -1 -88 10 -165 23 -286 49 -275 46 -275 67 0 10 3 19
7 19 3 0 90 -20 192 -44z m-425 -62 l158 -38 -6 -50 c-8 -71 -51 -194 -92
-262 -49 -82 -99 -130 -169 -164 -71 -34 -141 -44 -235 -35 l-70 7 51 56 c95
104 156 262 166 435 5 83 8 97 22 93 9 -2 87 -21 175 -42z"/>
<path d="M11796 3264 c-8 -21 -7 -66 2 -81 4 -6 7 13 7 43 0 30 -1 54 -1 54
-1 0 -5 -7 -8 -16z"/>
<path d="M3670 3664 c-14 -2 -68 -12 -120 -20 -299 -51 -564 -206 -735 -429
-35 -46 -55 -80 -51 -90 10 -26 30 -16 64 34 228 336 668 511 1189 474 450
-33 883 -168 1463 -456 286 -142 295 -146 265 -122 -32 25 -517 265 -653 323
-293 124 -605 219 -865 263 -88 15 -179 22 -327 24 -113 2 -216 2 -230 -1z"/>
<path d="M5990 2906 c0 -3 9 -10 20 -16 11 -6 20 -8 20 -6 0 3 -9 10 -20 16
-11 6 -20 8 -20 6z"/>
</g>
</svg>
